name rise49.5252peak65.1548fall88.8305.mot
datacolumns 19
datarows 21
range 18.18158800000000 18.21493000000000
endheader
time	ground_force1_vx	ground_force1_vy	ground_force1_vz	ground_force1_px	ground_force1_py	ground_force1_pz	ground_force2_vx	ground_force2_vy	ground_force2_vz	ground_force2_px	ground_force2_py	ground_force2_pz	ground_torque1_x	ground_torque1_y	ground_torque1_z	ground_torque2_x	ground_torque2_y	ground_torque2_z	
18.18158800000000	6.32931900000000	681.22275900000000	40.79313300000000	0.26990900000000	0.00000000000000	0.11144300000000	0.00000000000000	0.00000000000000	0.00000000000000	0.00000000000000	0.00000000000000	0.00000000000000	0.00000000000000	20.48332400000000	0.00000000000000	0.00000000000000	0.00000000000000	0.00000000000000	
18.18326000000000	5.85225000000000	681.40848600000004	40.83105000000000	0.26885400000000	0.00000000000000	0.11145600000000	0.00000000000000	0.00000000000000	0.00000000000000	0.00000000000000	0.00000000000000	0.00000000000000	0.00000000000000	20.54382200000000	0.00000000000000	0.00000000000000	0.00000000000000	0.00000000000000	
18.18492500000000	5.36913000000000	681.65628700000002	40.87218200000000	0.26782900000000	0.00000000000000	0.11146600000000	0.00000000000000	0.00000000000000	0.00000000000000	0.00000000000000	0.00000000000000	0.00000000000000	0.00000000000000	20.60987300000000	0.00000000000000	0.00000000000000	0.00000000000000	0.00000000000000	
18.18659400000000	4.87969100000000	681.96556299999997	40.91623600000000	0.26683300000000	0.00000000000000	0.11147500000000	0.00000000000000	0.00000000000000	0.00000000000000	0.00000000000000	0.00000000000000	0.00000000000000	0.00000000000000	20.68130400000000	0.00000000000000	0.00000000000000	0.00000000000000	0.00000000000000	
18.18826200000000	4.38367900000000	682.33574999999996	40.96294200000000	0.26586500000000	0.00000000000000	0.11148200000000	0.00000000000000	0.00000000000000	0.00000000000000	0.00000000000000	0.00000000000000	0.00000000000000	0.00000000000000	20.75794600000000	0.00000000000000	0.00000000000000	0.00000000000000	0.00000000000000	
18.18992800000000	3.88085100000000	682.76633200000003	41.01204600000000	0.26492500000000	0.00000000000000	0.11148700000000	0.00000000000000	0.00000000000000	0.00000000000000	0.00000000000000	0.00000000000000	0.00000000000000	0.00000000000000	20.83963300000000	0.00000000000000	0.00000000000000	0.00000000000000	0.00000000000000	
18.19159600000000	3.37097800000000	683.25683200000003	41.06331700000000	0.26401100000000	0.00000000000000	0.11149000000000	0.00000000000000	0.00000000000000	0.00000000000000	0.00000000000000	0.00000000000000	0.00000000000000	0.00000000000000	20.92620200000000	0.00000000000000	0.00000000000000	0.00000000000000	0.00000000000000	
18.19325600000000	2.85384200000000	683.80682100000001	41.11654300000000	0.26312300000000	0.00000000000000	0.11149100000000	0.00000000000000	0.00000000000000	0.00000000000000	0.00000000000000	0.00000000000000	0.00000000000000	0.00000000000000	21.01749500000000	0.00000000000000	0.00000000000000	0.00000000000000	0.00000000000000	
18.19493000000000	2.32923700000000	684.41591600000004	41.17153400000000	0.26225900000000	0.00000000000000	0.11149100000000	0.00000000000000	0.00000000000000	0.00000000000000	0.00000000000000	0.00000000000000	0.00000000000000	0.00000000000000	21.11335600000000	0.00000000000000	0.00000000000000	0.00000000000000	0.00000000000000	
18.19658900000000	1.79697000000000	685.08377800000005	41.22812300000000	0.26141700000000	0.00000000000000	0.11148800000000	0.00000000000000	0.00000000000000	0.00000000000000	0.00000000000000	0.00000000000000	0.00000000000000	0.00000000000000	21.21363600000000	0.00000000000000	0.00000000000000	0.00000000000000	0.00000000000000	
18.19826000000000	1.25686300000000	685.81011500000000	41.28616500000000	0.26059600000000	0.00000000000000	0.11148400000000	0.00000000000000	0.00000000000000	0.00000000000000	0.00000000000000	0.00000000000000	0.00000000000000	0.00000000000000	21.31818700000000	0.00000000000000	0.00000000000000	0.00000000000000	0.00000000000000	
18.19992800000000	0.70875000000000	686.59467800000004	41.34553800000000	0.25979600000000	0.00000000000000	0.11147900000000	0.00000000000000	0.00000000000000	0.00000000000000	0.00000000000000	0.00000000000000	0.00000000000000	0.00000000000000	21.42687000000000	0.00000000000000	0.00000000000000	0.00000000000000	0.00000000000000	
18.20159600000000	0.15247700000000	687.43726100000003	41.40614100000000	0.25901400000000	0.00000000000000	0.11147200000000	0.00000000000000	0.00000000000000	0.00000000000000	0.00000000000000	0.00000000000000	0.00000000000000	0.00000000000000	21.53954600000000	0.00000000000000	0.00000000000000	0.00000000000000	0.00000000000000	
18.20325800000000	-0.41209400000000	688.33769400000006	41.46790000000000	0.25824800000000	0.00000000000000	0.11146300000000	0.00000000000000	0.00000000000000	0.00000000000000	0.00000000000000	0.00000000000000	0.00000000000000	0.00000000000000	21.65608400000000	0.00000000000000	0.00000000000000	0.00000000000000	0.00000000000000	
18.20492600000000	-0.98508700000000	689.29584599999998	41.53076100000000	0.25749800000000	0.00000000000000	0.11145300000000	0.00000000000000	0.00000000000000	0.00000000000000	0.00000000000000	0.00000000000000	0.00000000000000	0.00000000000000	21.77635700000000	0.00000000000000	0.00000000000000	0.00000000000000	0.00000000000000	
18.20659600000000	-1.56661200000000	690.31161599999996	41.59469600000000	0.25676100000000	0.00000000000000	0.11144100000000	0.00000000000000	0.00000000000000	0.00000000000000	0.00000000000000	0.00000000000000	0.00000000000000	0.00000000000000	21.90024200000000	0.00000000000000	0.00000000000000	0.00000000000000	0.00000000000000	
18.20825700000000	-2.15676400000000	691.38493100000005	41.65969800000000	0.25603700000000	0.00000000000000	0.11142800000000	0.00000000000000	0.00000000000000	0.00000000000000	0.00000000000000	0.00000000000000	0.00000000000000	0.00000000000000	22.02762400000000	0.00000000000000	0.00000000000000	0.00000000000000	0.00000000000000	
18.20992400000000	-2.75562400000000	692.51573900000005	41.72578500000000	0.25532200000000	0.00000000000000	0.11141400000000	0.00000000000000	0.00000000000000	0.00000000000000	0.00000000000000	0.00000000000000	0.00000000000000	0.00000000000000	22.15839000000000	0.00000000000000	0.00000000000000	0.00000000000000	0.00000000000000	
18.21159800000000	-3.36325500000000	693.70400600000005	41.79299700000000	0.25461600000000	0.00000000000000	0.11139900000000	0.00000000000000	0.00000000000000	0.00000000000000	0.00000000000000	0.00000000000000	0.00000000000000	0.00000000000000	22.29243400000000	0.00000000000000	0.00000000000000	0.00000000000000	0.00000000000000	
18.21325900000000	-3.97970600000000	694.94970699999999	41.86139900000000	0.25391700000000	0.00000000000000	0.11138200000000	0.00000000000000	0.00000000000000	0.00000000000000	0.00000000000000	0.00000000000000	0.00000000000000	0.00000000000000	22.42965200000000	0.00000000000000	0.00000000000000	0.00000000000000	0.00000000000000	
18.21493000000000	-4.60500800000000	696.25282200000004	41.93107500000000	0.25322300000000	0.00000000000000	0.11136500000000	0.00000000000000	0.00000000000000	0.00000000000000	0.00000000000000	0.00000000000000	0.00000000000000	0.00000000000000	22.56994800000000	0.00000000000000	0.00000000000000	0.00000000000000	0.00000000000000	
